Coordinates
version=1
nRows=10
nColumns=28
inDegrees=yes

Units are S.I. units (second, meters, Newtons, ...)
Angles are in degrees.

endheader
time	pelvis_tilt	pelvis_list	pelvis_rotation	pelvis_tx	pelvis_ty	pelvis_tz	hip_flexion_r	hip_adduction_r	hip_rotation_r	knee_angle_r	ankle_angle_r	subtalar_angle_r	mtp_angle_r	hip_flexion_l	hip_adduction_l	hip_rotation_l	knee_angle_l	socket_flexion	socket_adduction	socket_rotation	socket_tx	socket_ty	socket_tz	foot_flex	lumbar_extension	lumbar_bending	lumbar_rotation
      0.97083333	      8.42331814	     -1.84700626	    -10.32422622	      0.46872240	      1.03801240	      0.30902739	      0.70341135	      3.34691015	     -2.50593412	    -23.83009052	      0.70073136	     -4.85413358	     35.54254717	      7.17778545	     -0.74327992	      4.09292592	    -69.60278373	    -11.27516359	     11.03141157	      1.98459160	      0.00000000	      0.04099028	      0.00000000	      0.53422951	    -19.39887362	      0.13549029	     13.64842416
      0.97500000	      8.42443616	     -1.80882131	    -10.59544416	      0.47293107	      1.03892926	      0.30948268	      0.32885270	      3.21825767	     -2.41150997	    -23.57921123	      0.61066511	     -4.59646680	     35.52057798	      7.57148851	     -0.67380084	      4.19591273	    -69.05523331	    -11.27150311	     11.03569864	      1.85057286	      0.00000000	      0.04024185	      0.00000000	      0.49532979	    -19.45682986	      0.03144141	     13.81490642
      0.97916667	      8.54219911	     -1.71841025	    -10.69861474	      0.47753019	      1.03997434	      0.30961027	     -0.19092697	      2.89324119	     -2.88683659	    -23.27352162	      0.32097428	     -3.44362579	     37.04077067	      7.84257846	     -0.48158489	      4.45395951	    -68.48194793	    -11.26697313	     11.03923607	      1.63262244	      0.00000000	      0.03968801	      0.00000000	      0.52951185	    -19.55936852	     -0.13995336	     14.16104785
      0.98333333	      8.52341453	     -1.68197392	    -10.97270065	      0.48170927	      1.04084119	      0.31013209	     -0.54516297	      2.78164287	     -2.74468075	    -23.01911373	      0.26656348	     -3.28866689	     36.96850089	      8.24492200	     -0.42991147	      4.56293426	    -67.87868005	    -11.26174215	     11.03817219	      1.46467738	      0.00000000	      0.03898911	      0.00000000	      0.45050836	    -19.58719648	     -0.24629784	     14.23182837
      0.98750000	      8.47484159	     -1.69999931	    -11.09287800	      0.48609728	      1.04166957	      0.31037497	     -0.95117422	      2.70941281	     -2.82627885	    -22.62947991	      0.03086781	     -2.97775080	     37.05894095	      8.68230706	     -0.40831576	      4.84797853	    -67.29913071	    -11.25752925	     11.04223575	      1.24620981	      0.00000000	      0.03832380	      0.00000000	      0.46867840	    -19.55594317	     -0.25704775	     14.53356333
      0.99166667	      8.44820205	     -1.65920957	    -11.35155459	      0.49021066	      1.04245676	      0.31086290	     -1.27562745	      2.58770078	     -2.69685619	    -22.40958443	     -0.01209098	     -2.78534553	     37.02090921	      9.08541386	     -0.35847870	      4.98372659	    -66.65298713	    -11.25307980	     11.03261719	      1.05723060	      0.00000000	      0.03763771	      0.00000000	      0.41354177	    -19.58674645	     -0.36219318	     14.57151602
      0.99583333	      8.38845527	     -1.65941997	    -11.51278026	      0.49446741	      1.04321506	      0.31115338	     -1.64224810	      2.50905775	     -2.67559715	    -22.05821656	     -0.13249272	     -2.51233993	     37.03124401	      9.52724798	     -0.32634544	      5.25325470	    -66.02165418	    -11.24622348	     11.03154636	      0.81884923	      0.00000000	      0.03704240	      0.00000000	      0.41809652	    -19.55762191	     -0.39610818	     14.73368581
      1.00000000	      8.32321225	     -1.66594320	    -11.68632120	      0.49869060	      1.04391231	      0.31144927	     -1.96713074	      2.43012835	     -2.67143664	    -21.78000813	     -0.24752223	     -2.25195848	     37.03979685	      9.94356133	     -0.30487666	      5.52637248	    -65.33078460	    -11.23904036	     11.02695993	      0.57076615	      0.00000000	      0.03630725	      0.00000000	      0.39084153	    -19.52839407	     -0.41969744	     14.85057911
      1.00416667	      8.26833076	     -1.66783839	    -11.89572924	      0.50274102	      1.04456242	      0.31183042	     -2.25576533	      2.34955246	     -2.64206814	    -21.56697814	     -0.32414915	     -2.03438158	     37.01101461	     10.34294302	     -0.30344962	      5.74410903	    -64.60628588	    -11.23157345	     10.99938265	      0.38548081	      0.00000000	      0.03550168	      0.00000000	      0.33696654	    -19.55575991	     -0.46628946	     14.91384553
      1.00833333	      8.18811370	     -1.69203751	    -12.03155458	      0.50696905	      1.04518413	      0.31215041	     -2.58654597	      2.30660939	     -2.61846239	    -21.26730567	     -0.41502676	     -1.79007775	     37.00131695	     10.77558132	     -0.31280763	      6.06954822	    -63.90753632	    -11.22471277	     10.99162263	      0.09308026	      0.00000000	      0.03489623	      0.00000000	      0.32358362	    -19.50451028	     -0.47943757	     15.01798535
